<svg width="250" height="250" xmlns="http://www.w3.org/2000/svg" preserveAspectRatio="xMidYMid">

 <g>
  <title>background</title>
  <rect fill="none" id="canvas_background" height="252" width="252" y="-1" x="-1"/>
 </g>
 <g>
  <title>Layer 1</title>
  <g stroke="null" id="svg_1">
   <path stroke="null" id="svg_2" fill="#5382A1" d="m95.669919,178.662652c0,0 -8.068809,4.692292 5.742297,6.280103c16.731765,1.908788 25.283177,1.635046 43.721697,-1.854721c0,0 4.847659,3.039604 11.617764,5.672296c-41.33429,17.715184 -93.547643,-1.026101 -61.081758,-10.097677"/>
   <path stroke="null" id="svg_3" fill="#5382A1" d="m90.619089,155.545498c0,0 -9.049951,6.698966 4.771399,8.128565c17.873396,1.843909 31.988404,1.994722 56.412798,-2.708383c0,0 3.378224,3.424889 8.690274,5.297823c-49.975621,14.613547 -105.639473,1.152443 -69.874471,-10.718005"/>
   <path stroke="null" id="svg_4" fill="#E76F00" d="m133.199156,116.331134c10.184751,11.725895 -2.675944,22.27772 -2.675944,22.27772c0,0 25.860822,-13.350128 13.984114,-30.067666c-11.092478,-15.590136 -19.59893,-23.33626 26.451555,-50.043914c0,0 -72.284073,18.053233 -37.759725,57.83386"/>
   <path stroke="null" id="svg_5" fill="#5382A1" d="m187.86707,195.761492c0,0 5.971078,4.919936 -6.576039,8.726128c-23.858701,7.227668 -99.30246,9.410195 -120.260419,0.287968c-7.533847,-3.277491 6.594251,-7.8258 11.038413,-8.780193c4.634813,-1.005044 7.28344,-0.817808 7.28344,-0.817808c-8.378403,-5.902216 -54.154579,11.589308 -23.252032,16.598594c84.275741,13.667121 153.626633,-6.15433 131.766638,-16.01469"/>
   <path stroke="null" id="svg_6" fill="#5382A1" d="m99.550095,131.593463c0,0 -38.3755,9.114828 -13.589722,12.424759c10.465321,1.401143 31.32767,1.08415 50.760421,-0.544067c15.881519,-1.339679 31.828484,-4.188063 31.828484,-4.188063c0,0 -5.600019,2.39822 -9.651497,5.164652c-38.969648,10.24906 -114.25178,5.481076 -92.579021,-5.002457c18.328682,-8.859868 33.231335,-7.854825 33.231335,-7.854825"/>
   <path stroke="null" id="svg_7" fill="#5382A1" d="m168.391067,170.07311c39.614447,-20.585194 21.298285,-40.367377 8.513851,-37.702245c-3.133507,0.652198 -4.530667,1.217322 -4.530667,1.217322c0,0 1.163257,-1.822283 3.385053,-2.611066c25.291714,-8.891739 44.742676,26.225051 -8.164419,40.133473c0,0.000569 0.612929,-0.547482 0.796182,-1.037483"/>
   <path stroke="null" id="svg_8" fill="#E76F00" d="m144.507325,15.371433c0,0 21.939101,21.946499 -20.808284,55.694015c-34.279063,27.071314 -7.816694,42.506652 -0.014228,60.142161c-20.009257,-18.053233 -34.693373,-33.945565 -24.842119,-48.736674c14.459319,-21.712027 54.516532,-32.238811 45.664631,-67.099502"/>
   <path stroke="null" id="svg_9" fill="#5382A1" d="m103.442792,225.854198c38.024929,2.434073 96.416515,-1.350492 97.799447,-19.342831c0,0 -2.658302,6.820756 -31.425557,12.237522c-32.455073,6.107664 -72.483829,5.394572 -96.225294,1.480249c0.000569,-0.000569 4.860179,4.022453 29.851404,5.62506"/>
  </g>
 </g>
</svg>