<svg width="250" height="250" xmlns="http://www.w3.org/2000/svg" preserveAspectRatio="xMinYMin meet">

 <g>
  <title>background</title>
  <rect fill="none" id="canvas_background" height="252" width="252" y="-1" x="-1"/>
 </g>
 <g>
  <title>Layer 1</title>
  <g id="svg_1" fill="#8CC84B">
   <path stroke="null" id="svg_2" d="m115.485529,14.933388c5.459176,-3.124794 12.569749,-3.138909 18.02422,0c27.440946,15.505565 54.890517,30.986822 82.326758,46.501797c5.160419,2.906803 8.612199,8.649838 8.559662,14.595964l0,93.287453c0.038423,6.192346 -3.754458,12.072605 -9.198735,14.91354c-27.35077,15.420094 -54.687425,30.859008 -82.03349,46.279102c-5.572092,3.185957 -12.825378,2.940521 -18.223391,-0.506554c-8.199742,-4.753451 -16.413598,-9.483378 -24.614124,-14.232124c-1.675705,-0.998993 -3.564696,-1.79411 -4.747962,-3.418846c1.046041,-1.409882 2.916213,-1.585529 4.435875,-2.201078c3.422767,-1.088385 6.56638,-2.835447 9.710778,-4.530755c0.795117,-0.544192 1.765881,-0.335612 2.528064,0.151339c7.011771,4.020281 13.961596,8.157398 20.996891,12.139256c1.500842,0.866474 3.020504,-0.283858 4.303355,-0.998993c26.839511,-15.16917 53.711956,-30.281097 80.546762,-45.454972c0.994288,-0.478325 1.54397,-1.533776 1.463203,-2.622945c0.018819,-30.773537 0.004705,-61.552562 0.00941,-92.326099c0.1137,-1.235803 -0.601435,-2.372021 -1.718833,-2.87779c-27.255889,-15.349522 -54.497663,-30.722567 -81.748847,-46.07601a2.839367,2.839367 0 0 0 -3.210265,-0.004705c-27.251184,15.358147 -54.488253,30.745308 -81.739437,46.094045c-1.113477,0.506554 -1.860762,1.623952 -1.728242,2.86446c0.004705,30.773537 0,61.552562 0,92.330803a2.610399,2.610399 0 0 0 1.482023,2.590011c7.272105,4.123787 14.553621,8.218561 21.830431,12.328234c4.099479,2.206567 9.132867,3.517648 13.649508,1.827044c3.985779,-1.429485 6.779666,-5.496815 6.703605,-9.728813c0.037639,-30.593969 -0.018819,-61.192642 0.028229,-91.781906c-0.099586,-1.358129 1.188755,-2.480232 2.509245,-2.352417c3.494124,-0.023524 6.992952,-0.047048 10.487075,0.00941c1.458499,-0.032934 2.462197,1.429485 2.281845,2.797808c-0.014115,30.787651 0.037639,61.576086 -0.023524,92.363737c0.00941,8.205231 -3.361604,17.133438 -10.951286,21.14823c-9.350074,4.843627 -20.906715,3.816405 -30.143873,-0.828051c-7.99665,-3.991268 -15.627891,-8.701591 -23.482612,-12.977501c-5.458392,-2.825253 -9.232453,-8.729036 -9.19403,-14.916677l0,-93.288237c-0.057242,-6.069236 3.531762,-11.916561 8.85293,-14.781021c27.346065,-15.43264 54.687425,-30.877043 82.028785,-46.316741z"/>
   <path stroke="null" id="svg_3" d="m146.530105,85.921938c12.540384,-0.807169 25.965439,-0.4782 37.250136,5.69965c8.737045,4.734181 13.580882,14.670023 13.73506,24.37666c-0.244047,1.309279 -1.612688,2.031526 -2.862604,1.941657c-3.638443,-0.004947 -7.27771,0.049469 -10.916153,-0.024734c-1.543432,0.059363 -2.440469,-1.363695 -2.634223,-2.728214c-1.045444,-4.644312 -3.578256,-9.244102 -7.949664,-11.484222c-6.710466,-3.359768 -14.491111,-3.190749 -21.808396,-3.120668c-5.341824,0.283622 -11.085997,0.746157 -15.611583,3.887437c-3.474371,2.379458 -4.529709,7.182895 -3.289687,11.051368c1.169117,2.777683 4.375531,3.673896 6.999035,4.500027c15.112771,3.952571 31.127526,3.559292 45.951728,8.760955c6.13745,2.12057 12.141335,6.242984 14.242117,12.669004c2.748001,8.612548 1.543432,18.907041 -4.584125,25.821154c-4.969158,5.689756 -12.206469,8.786514 -19.424816,10.468459c-9.602752,2.141182 -19.568276,2.195598 -29.320259,1.244969c-9.169898,-1.045444 -18.712463,-3.454583 -25.791473,-9.702514c-6.053353,-5.256078 -9.009949,-13.445666 -8.716433,-21.349984c0.070081,-1.334838 1.399147,-2.265679 2.67792,-2.156023c3.664002,-0.029681 7.328004,-0.039575 10.992005,0.004947c1.463457,-0.104709 2.548477,1.160047 2.623504,2.539407c0.676076,4.424999 2.339058,9.069311 6.197638,11.692816c7.446729,4.804262 16.790593,4.475293 25.317395,4.609684c7.064169,-0.313303 14.994045,-0.408119 20.758829,-5.077165c3.041517,-2.66308 3.942677,-7.118585 3.120668,-10.951606c-0.890441,-3.236095 -4.275768,-4.744074 -7.182895,-5.730156c-14.919017,-4.71934 -31.112685,-3.006889 -45.887418,-8.343767c-5.998113,-2.119745 -11.79835,-6.127557 -14.102779,-12.289741c-3.215483,-8.72138 -1.742132,-19.508913 5.027696,-26.189698c6.60081,-6.645332 16.129358,-9.204527 25.188776,-10.120527l0,0.000824z"/>
  </g>
 </g>
</svg>