<svg width="250" height="250" xmlns="http://www.w3.org/2000/svg">

 <g>
  <title>background</title>
  <rect fill="none" id="canvas_background" height="252" width="252" y="-1" x="-1"/>
 </g>
 <g>
  <title>Layer 1</title>
  <g id="svg_1">
   <path stroke="null" id="svg_2" d="m242.299997,124.484508c0,-15.541174 -19.462332,-30.269425 -49.301386,-39.402853c6.885936,-30.412882 3.82552,-54.609295 -9.659437,-62.355972c-3.108235,-1.817122 -6.742479,-2.677864 -10.711455,-2.677864l0,10.663636c2.199674,0 3.968977,0.430371 5.451366,1.243294c6.503384,3.729882 9.324704,17.932124 7.125031,36.198981c-0.526009,4.494986 -1.386751,9.229066 -2.438769,14.058785c-9.372523,-2.295312 -19.605789,-4.064615 -30.365063,-5.212271c-6.455565,-8.846514 -13.150224,-16.880106 -19.892703,-23.909498c15.588993,-14.489156 30.221606,-22.42711 40.167957,-22.42711l0,-10.663636c0,0 0,0 0,0c-13.150224,0 -30.365063,9.372523 -47.771178,25.630982c-17.406115,-16.162821 -34.620954,-25.439706 -47.771178,-25.439706l0,10.663636c9.898532,0 24.578964,7.890134 40.167957,22.283653c-6.69466,7.029393 -13.389319,15.015165 -19.749246,23.861679c-10.807093,1.147656 -21.040359,2.916959 -30.412882,5.26009c-1.099837,-4.7819 -1.91276,-9.420342 -2.486588,-13.867509c-2.247493,-18.266857 0.526009,-32.469099 6.981574,-36.2468c1.43457,-0.860742 3.299511,-1.243294 5.499185,-1.243294l0,-10.663636c0,0 0,0 0,0c-4.016796,0 -7.65104,0.860742 -10.807093,2.677864c-13.437138,7.746678 -16.449735,31.895271 -9.51598,62.212515c-29.743416,9.181247 -49.11011,23.861679 -49.11011,39.355034c0,15.541174 19.462332,30.269425 49.301386,39.402853c-6.885936,30.412882 -3.82552,54.609295 9.659437,62.355972c3.108235,1.817122 6.742479,2.677864 10.759274,2.677864c13.150224,0 30.365063,-9.372523 47.771178,-25.630982c17.406115,16.162821 34.620954,25.439706 47.771178,25.439706c4.016796,0 7.65104,-0.860742 10.807093,-2.677864c13.437138,-7.746678 16.449735,-31.895271 9.51598,-62.212515c29.647778,-9.133428 49.014472,-23.861679 49.014472,-39.355034zm-62.260334,-31.895271c-1.769303,6.168651 -3.968977,12.528577 -6.455565,18.888504c-1.960579,-3.82552 -4.016796,-7.65104 -6.264289,-11.476559c-2.199674,-3.82552 -4.542805,-7.555402 -6.885936,-11.189645c6.790298,1.004199 13.3415,2.247493 19.605789,3.777701zm-21.901101,50.927232c-3.729882,6.455565 -7.555402,12.576396 -11.524378,18.266857c-7.125031,0.621647 -14.345699,0.95638 -21.614187,0.95638c-7.220669,0 -14.441337,-0.334733 -21.518549,-0.908561c-3.968977,-5.690461 -7.842316,-11.763473 -11.572197,-18.171219c-3.634244,-6.264289 -6.933755,-12.624215 -9.946351,-19.031961c2.964778,-6.407746 6.312108,-12.815491 9.898532,-19.07978c3.729882,-6.455565 7.555402,-12.576396 11.524378,-18.266857c7.125031,-0.621647 14.345699,-0.95638 21.614187,-0.95638c7.220669,0 14.441337,0.334733 21.518549,0.908561c3.968977,5.690461 7.842316,11.763473 11.572197,18.171219c3.634244,6.264289 6.933755,12.624215 9.946351,19.031961c-3.012597,6.407746 -6.312108,12.815491 -9.898532,19.07978zm15.445536,-6.21647c2.582226,6.407746 4.7819,12.815491 6.599022,19.031961c-6.264289,1.530208 -12.86331,2.821321 -19.701427,3.82552c2.343131,-3.682063 4.686262,-7.459764 6.885936,-11.333102c2.199674,-3.82552 4.255891,-7.698859 6.21647,-11.524378zm-48.488463,51.02287c-4.447167,-4.590624 -8.894333,-9.707256 -13.293681,-15.302079c4.30371,0.191276 8.703057,0.334733 13.150224,0.334733c4.494986,0 8.942152,-0.095638 13.293681,-0.334733c-4.30371,5.594823 -8.750876,10.711455 -13.150224,15.302079zm-35.577334,-28.165389c-6.790298,-1.004199 -13.3415,-2.247493 -19.605789,-3.777701c1.769303,-6.168651 3.968977,-12.528577 6.455565,-18.888504c1.960579,3.82552 4.016796,7.65104 6.264289,11.476559c2.247493,3.82552 4.542805,7.555402 6.885936,11.189645zm35.338239,-99.511333c4.447167,4.590624 8.894333,9.707256 13.293681,15.302079c-4.30371,-0.191276 -8.703057,-0.334733 -13.150224,-0.334733c-4.494986,0 -8.942152,0.095638 -13.293681,0.334733c4.30371,-5.594823 8.750876,-10.711455 13.150224,-15.302079zm-35.386058,28.165389c-2.343131,3.682063 -4.686262,7.459764 -6.885936,11.333102c-2.199674,3.82552 -4.255891,7.65104 -6.21647,11.476559c-2.582226,-6.407746 -4.7819,-12.815491 -6.599022,-19.031961c6.264289,-1.482389 12.86331,-2.773502 19.701427,-3.777701zm-43.276192,59.869384c-16.927925,-7.220669 -27.878475,-16.68883 -27.878475,-24.196412c0,-7.507583 10.95055,-17.023563 27.878475,-24.196412c4.112434,-1.769303 8.607419,-3.34733 13.245862,-4.829719c2.725683,9.372523 6.312108,19.127599 10.759274,29.121769c-4.399348,9.946351 -7.937953,19.653608 -10.615817,28.978312c-4.734081,-1.482389 -9.229066,-3.108235 -13.389319,-4.877538zm25.72662,68.333347c-6.503384,-3.729882 -9.324704,-17.932124 -7.125031,-36.198981c0.526009,-4.494986 1.386751,-9.229066 2.438769,-14.058785c9.372523,2.295312 19.605789,4.064615 30.365063,5.212271c6.455565,8.846514 13.150224,16.880106 19.892703,23.909498c-15.588993,14.489156 -30.221606,22.42711 -40.167957,22.42711c-2.151855,-0.047819 -3.968977,-0.47819 -5.403547,-1.291113zm113.426661,-36.438076c2.247493,18.266857 -0.526009,32.469099 -6.981574,36.2468c-1.43457,0.860742 -3.299511,1.243294 -5.499185,1.243294c-9.898532,0 -24.578964,-7.890134 -40.167957,-22.283653c6.69466,-7.029393 13.389319,-15.015165 19.749246,-23.861679c10.807093,-1.147656 21.040359,-2.916959 30.412882,-5.26009c1.099837,4.829719 1.960579,9.468161 2.486588,13.915328zm18.410314,-31.895271c-4.112434,1.769303 -8.607419,3.34733 -13.245862,4.829719c-2.725683,-9.372523 -6.312108,-19.127599 -10.759274,-29.121769c4.399348,-9.946351 7.937953,-19.653608 10.615817,-28.978312c4.734081,1.482389 9.229066,3.108235 13.437138,4.877538c16.927925,7.220669 27.878475,16.68883 27.878475,24.196412c-0.047819,7.507583 -10.998369,17.023563 -27.926294,24.196412z" fill="#61DAFB"/>
   <polygon id="svg_3" points="154.79998779296875,41.400001525878906 154.79998779296875,41.400001525878906 154.79998779296875,41.400001525878906 " fill="#61DAFB"/>
   <circle stroke="null" id="svg_4" r="22.700005" cy="121.500004" cx="123.900001" fill="#61DAFB"/>
   <polygon id="svg_5" points="354.5,41.099998474121094 354.5,41.099998474121094 354.5,41.099998474121094 " fill="#61DAFB"/>
  </g>
 </g>
</svg>