<svg width="250" height="250" xmlns="http://www.w3.org/2000/svg">
 <metadata id="metadata35">image/svg+xml</metadata>

 <g>
  <title>background</title>
  <rect fill="none" id="canvas_background" height="252" width="252" y="-1" x="-1"/>
 </g>
 <g>
  <title>Layer 1</title>
  <g stroke="null" id="g3">
   <path stroke="null" fill="#f89939" id="path5" d="m207.230282,168.681466c28.697191,-28.695497 33.466641,-70.449575 10.652251,-93.262271c-22.811001,-22.810153 -64.563385,-18.041551 -93.258882,10.652251c-28.695497,28.694649 -20.394502,83.51663 -10.650556,93.262271c7.873956,7.873956 64.563385,18.041551 93.257187,-10.652251z"/>
   <path stroke="null" fill="#3499cd" id="path7" d="m89.481051,127.217163c-16.647743,-16.647743 -40.875429,-19.41926 -54.114486,-6.181051c-13.235668,13.236515 -10.468387,37.46759 6.182745,54.112791c16.651132,16.652827 48.461303,11.835929 54.111097,6.181051c4.572029,-4.564403 10.473471,-37.463353 -6.179356,-54.112791z"/>
  </g>
  <g stroke="null" id="g9">
   <g stroke="null" id="g11">
    <path stroke="null" fill="#010101" id="path13" d="m114.869676,149.209252c-2.976742,2.740044 -5.588146,4.762273 -7.832494,6.061543c-2.244349,1.303558 -4.384928,1.954479 -6.421736,1.954479c-2.342973,0 -4.233132,-0.908202 -5.666187,-2.725464c-1.435629,-1.818977 -2.15087,-4.258002 -2.15087,-7.326508c0,-4.597613 0.996535,-10.11715 2.989606,-16.552608c1.989641,-6.440604 4.412371,-12.375221 7.2579,-17.80471l8.343626,-3.089088c0.261569,-0.087476 0.460533,-0.132071 0.592604,-0.132071c0.632912,0 1.15605,0.466536 1.557408,1.395321c0.405647,0.933073 0.609756,2.186889 0.609756,3.763165c0,4.467258 -1.028267,8.792153 -3.089088,12.974686c-2.059964,4.184248 -5.277693,8.649791 -9.656617,13.401773c-0.175809,2.277795 -0.263284,3.842064 -0.263284,4.697095c0,1.906453 0.349902,3.414978 1.050564,4.532435c0.70152,1.119173 1.631162,1.6749 2.792358,1.6749c1.184351,0 2.442455,-0.423656 3.778602,-1.277829c1.333574,-0.855888 3.370382,-2.627698 6.106996,-5.323146l0,3.776029l0.000858,0zm-12.579331,-12.8409c2.780351,-3.091661 5.038422,-6.558953 6.767351,-10.395014c1.728929,-3.837776 2.592536,-7.138693 2.592536,-9.904465c0,-0.806147 -0.119207,-1.461357 -0.358478,-1.953621c-0.240987,-0.493122 -0.549724,-0.74097 -0.921066,-0.74097c-0.807005,0 -1.98621,2.017084 -3.530754,6.052109c-1.544544,4.034168 -3.060787,9.682345 -4.549587,16.94196z"/>
    <path stroke="null" fill="#010101" id="path15" d="m139.441736,149.209252c-2.780351,2.740044 -5.275978,4.762273 -7.488595,6.061543c-2.212617,1.303558 -4.651642,1.954479 -7.324793,1.954479c-2.978458,0 -5.381463,-0.952798 -7.212447,-2.85582c-1.827553,-1.908168 -2.740044,-4.413228 -2.740044,-7.523757c0,-4.641351 1.608007,-8.841036 4.830881,-12.596483c3.216014,-3.757162 6.787075,-5.634456 10.706324,-5.634456c2.036809,0 3.666256,0.527426 4.894344,1.577991c1.226373,1.05228 1.83956,2.430449 1.83956,4.138795c0,4.534151 -4.81716,8.210698 -14.452337,11.036502c0.874756,4.268293 3.162842,6.405442 6.86426,6.405442c1.44592,0 2.824089,-0.388494 4.13708,-1.163768c1.316422,-0.778704 3.296629,-2.505918 5.946624,-5.175638l0,3.775171l-0.000858,0zm-17.212106,-6.075264c5.60444,-1.577991 8.408804,-4.488698 8.408804,-8.737266c0,-2.101987 -0.767555,-3.152551 -2.298378,-3.152551c-1.44592,0 -2.824089,1.09859 -4.13708,3.301774c-1.317279,2.199753 -1.973346,5.060719 -1.973346,8.588043z"/>
    <path stroke="null" fill="#010101" id="path17" d="m174.522872,149.209252c-3.504169,3.32836 -6.011802,5.498955 -7.521184,6.507497c-1.511098,1.006827 -2.95616,1.509382 -4.336902,1.509382c-3.460431,0 -5.090735,-3.053927 -4.894344,-9.164353c-2.189462,3.130253 -4.210834,5.440638 -6.061543,6.932868c-1.848994,1.4888 -3.758877,2.231485 -5.732223,2.231485c-1.924463,0 -3.56077,-0.901341 -4.909781,-2.708312c-1.349011,-1.806971 -2.018799,-4.023019 -2.018799,-6.653289c0,-3.282907 0.901341,-6.414875 2.706597,-9.395048c1.808686,-2.978458 4.124216,-5.384893 6.948305,-7.224453c2.824089,-1.83956 5.323146,-2.760626 7.488595,-2.760626c2.738329,0 4.655073,1.25982 5.750233,3.776887l6.713322,-3.709993l1.842133,0l-2.899558,9.623171c-1.4888,4.841173 -2.235773,8.159241 -2.235773,9.954206c0,1.88244 0.666358,2.824089 2.003362,2.824089c0.850743,0 1.792392,-0.453672 2.822374,-1.36359c1.029982,-0.909917 2.472471,-2.294947 4.333471,-4.155947l0,3.776029l0.001715,0zm-24.044634,1.808686c2.189462,0 4.252857,-1.866146 6.194471,-5.599294c1.938184,-3.734864 2.906419,-7.180716 2.906419,-10.333267c0,-1.224658 -0.276148,-2.184317 -0.820727,-2.872972c-0.549724,-0.692086 -1.282975,-1.035128 -2.200611,-1.035128c-2.191177,0 -4.268293,1.861 -6.224487,5.584715c-1.959624,3.723715 -2.941581,7.150699 -2.941581,10.279238c0,1.184351 0.291585,2.142294 0.871325,2.876403c0.57974,0.734109 1.315564,1.100306 2.21519,1.100306z"/>
    <path stroke="null" fill="#010101" id="path19" d="m199.061485,149.209252c-5.49724,5.386609 -9.735517,8.082057 -12.713117,8.082057c-1.337004,0 -2.465611,-0.564303 -3.383246,-1.688622c-0.917636,-1.128606 -1.379884,-2.525643 -1.379884,-4.191109c0,-3.087373 1.655175,-7.224453 4.961237,-12.415528c-1.621729,0.832733 -3.393538,1.410758 -5.321431,1.740078c-1.423622,2.627698 -3.658537,5.453502 -6.701315,8.472267l-0.753834,0l0,-2.952729c1.706631,-1.773524 3.251176,-3.679977 4.63106,-5.716786c-1.88587,-0.832733 -2.825804,-2.070255 -2.825804,-3.709993c0,-1.688622 0.572879,-3.488732 1.725499,-5.407191c1.149189,-1.914171 2.73061,-2.871257 4.746836,-2.871257c1.708347,0 2.560805,0.873041 2.560805,2.625982c0,1.379884 -0.492265,3.3498 -1.479366,5.913177c3.634524,-0.395355 6.810231,-3.173991 9.527119,-8.343626l2.987891,-0.132071l-3.054784,8.408804c-1.269253,3.547906 -2.090838,5.964634 -2.46218,7.244178c-0.371342,1.279545 -0.559158,2.415012 -0.559158,3.398683c0,0.921066 0.214401,1.65689 0.639772,2.200611c0.427087,0.551439 1.003396,0.822442 1.725499,0.822442c0.78728,0 1.544544,-0.269288 2.266646,-0.802717c0.722102,-0.541148 2.342973,-2.023087 4.862613,-4.453536l0,3.776887l-0.000858,0z"/>
    <path stroke="null" fill="#010101" id="path21" d="m231.31939,149.209252c-5.058146,5.346301 -9.396763,8.016879 -13.008132,8.016879c-1.46736,0 -2.649995,-0.514562 -3.547906,-1.544544c-0.899626,-1.028267 -1.348153,-2.407293 -1.348153,-4.13708c0,-2.342973 0.964804,-5.924326 2.892697,-10.739771c1.028267,-2.584817 1.544544,-4.229701 1.544544,-4.927791c0,-0.70152 -0.276148,-1.05228 -0.820727,-1.05228c-0.306165,0 -0.713526,0.154369 -1.216082,0.458818c-0.462248,0.306165 -0.998251,0.736682 -1.611437,1.282975c-0.546294,0.502556 -1.161195,1.115742 -1.83956,1.836129c-0.592604,0.618332 -1.228088,1.318137 -1.903023,2.103702l-1.842133,2.137148c-0.80872,0.984529 -1.312991,2.023087 -1.509382,3.119105c-0.330177,1.861 -0.548009,3.571062 -0.65864,5.127612c-0.066893,1.157765 -0.098624,2.722034 -0.098624,4.697095l-7.259615,1.704916c-0.239271,-2.95616 -0.361909,-5.157628 -0.361909,-6.600975c0,-3.525609 0.410792,-6.865975 1.233234,-10.018526c0.820727,-3.155982 2.138864,-6.701315 3.957841,-10.644577l8.013449,-1.542829c-1.685191,4.534151 -2.790642,8.101782 -3.316353,10.706324c3.591644,-4.006724 6.438888,-6.780215 8.549451,-8.326474c2.107132,-1.544544 3.983569,-2.312957 5.623307,-2.312957c1.114027,0 2.045385,0.420226 2.787212,1.261535c0.745258,0.842167 1.115742,1.899592 1.115742,3.1637c0,2.100271 -0.941649,5.560702 -2.822374,10.380435c-1.293266,3.305205 -1.939899,5.450071 -1.939899,6.440604c0,1.318137 0.537718,1.976776 1.613153,1.976776c1.601146,0 4.19454,-2.113993 7.77332,-6.340264l0,3.774314z"/>
   </g>
  </g>
  <text font-family="Helvetica" fill="#ffffff" y="105.945938" x="154.33279" id="text25" font-size="23.0795px">scikit</text>
 </g>
</svg>