<svg width="250" height="250" xmlns="http://www.w3.org/2000/svg">
 <!-- Created with Method Draw - http://github.com/duopixel/Method-Draw/ -->

 <g>
  <title>background</title>
  <rect fill="none" id="canvas_background" height="252" width="252" y="-1" x="-1"/>
 </g>
 <g>
  <title>Layer 1</title>

  <metadata transform="matrix(6.574692089912389,0,0,6.574692089912389,0,0) " id="svg_15">image/svg+xml</metadata>
  <g id="svg_17">
   <g transform="matrix(6.574692089912389,0,0,6.574692089912389,0,0) " id="svg_10">
    <g id="svg_11">
     <path fill="#e55b2d" id="svg_14" transform="translate(-77.9425277709961,-177.0000457763672) scale(0.2645833194255829) " d="m374.626109,698.313666l0,18.89843l32.73047,18.89844l0,-18.89844l-32.73047,-18.89843zm-65.46289,18.89843l0,18.89844l16.36523,9.44727l0,-18.89649l-16.36523,-9.44922zm49.0957,9.44922l-16.36523,9.44922l0,56.69141l16.36523,9.44922l0,-37.79493l16.36719,9.44922l0,-18.89843l-16.36719,-9.44922l0,-18.89649z"/>
     <path fill="#ed8e24" id="svg_13" transform="translate(-77.9425277709961,-177.0000457763672) scale(0.2645833194255829) " d="m374.626109,698.313666l-49.09766,28.34765l0,18.89649l32.73047,-18.89649l0,18.89649l16.36719,-9.44727l0,-37.79687zm49.09765,9.44922l-16.36718,9.44921l0,18.89844l16.36718,-9.44922l0,-18.89843zm-32.73242,37.79492l-16.36523,9.44922l0,18.89843l16.36523,-9.44922l0,-18.89843zm-16.36523,28.34765l-16.36719,-9.44922l0,37.79493l16.36719,-9.44922l0,-18.89649z"/>
     <path fill="#f8bf3c" id="svg_12" transform="translate(-77.9425277709961,-177.0000457763672) scale(0.2645833194255829) " d="m374.626109,679.417176l-65.46289,37.79492l16.36523,9.44922l49.09766,-28.34765l32.73047,18.89843l16.36718,-9.44921l-49.09765,-28.34571zm0,56.69336l-16.36719,9.44727l16.36719,9.44922l16.36523,-9.44922l-16.36523,-9.44727z"/>
    </g>
   </g>
  </g>
 </g>
</svg>